<mxfile host="app.diagrams.net" agent="Mozilla/5.0 (Windows NT 10.0; Win64; x64) AppleWebKit/537.36 (KHTML, like Gecko) Chrome/133.0.0.0 Safari/537.36" version="26.0.16" pages="2">
  <diagram name="Page-1" id="jo6redMAl-Jo5JpHQjsm">
    <mxGraphModel dx="1693" dy="1125" grid="1" gridSize="10" guides="1" tooltips="1" connect="1" arrows="1" fold="1" page="1" pageScale="1" pageWidth="827" pageHeight="1169" math="0" shadow="0">
      <root>
        <mxCell id="0" />
        <mxCell id="1" parent="0" />
        <mxCell id="Adh_r_rt0b7_pmHKlbrO-36" style="rounded=0;orthogonalLoop=1;jettySize=auto;html=1;entryX=0.5;entryY=0;entryDx=0;entryDy=0;endArrow=none;startFill=0;" edge="1" parent="1" source="Adh_r_rt0b7_pmHKlbrO-32" target="Adh_r_rt0b7_pmHKlbrO-35">
          <mxGeometry relative="1" as="geometry" />
        </mxCell>
        <mxCell id="Adh_r_rt0b7_pmHKlbrO-46" style="rounded=0;orthogonalLoop=1;jettySize=auto;html=1;entryX=0;entryY=0.5;entryDx=0;entryDy=0;endArrow=none;startFill=0;" edge="1" parent="1" source="Adh_r_rt0b7_pmHKlbrO-32" target="Adh_r_rt0b7_pmHKlbrO-40">
          <mxGeometry relative="1" as="geometry" />
        </mxCell>
        <mxCell id="Adh_r_rt0b7_pmHKlbrO-50" style="rounded=0;orthogonalLoop=1;jettySize=auto;html=1;entryX=0;entryY=0.5;entryDx=0;entryDy=0;endArrow=none;startFill=0;" edge="1" parent="1" source="Adh_r_rt0b7_pmHKlbrO-32" target="Adh_r_rt0b7_pmHKlbrO-44">
          <mxGeometry relative="1" as="geometry" />
        </mxCell>
        <mxCell id="Adh_r_rt0b7_pmHKlbrO-51" style="rounded=0;orthogonalLoop=1;jettySize=auto;html=1;entryX=0;entryY=0.5;entryDx=0;entryDy=0;endArrow=none;startFill=0;" edge="1" parent="1" source="Adh_r_rt0b7_pmHKlbrO-32" target="Adh_r_rt0b7_pmHKlbrO-45">
          <mxGeometry relative="1" as="geometry" />
        </mxCell>
        <mxCell id="Adh_r_rt0b7_pmHKlbrO-52" style="rounded=0;orthogonalLoop=1;jettySize=auto;html=1;endArrow=none;startFill=0;" edge="1" parent="1" source="Adh_r_rt0b7_pmHKlbrO-32" target="Adh_r_rt0b7_pmHKlbrO-39">
          <mxGeometry relative="1" as="geometry" />
        </mxCell>
        <mxCell id="Adh_r_rt0b7_pmHKlbrO-32" value="STUDENT" style="rounded=0;whiteSpace=wrap;html=1;" vertex="1" parent="1">
          <mxGeometry x="470" y="650" width="100" height="50" as="geometry" />
        </mxCell>
        <mxCell id="Adh_r_rt0b7_pmHKlbrO-33" value="POSTGRADUATE" style="rounded=0;whiteSpace=wrap;html=1;" vertex="1" parent="1">
          <mxGeometry x="555" y="800" width="140" height="50" as="geometry" />
        </mxCell>
        <mxCell id="Adh_r_rt0b7_pmHKlbrO-34" value="UNDERGRADUATE" style="rounded=0;whiteSpace=wrap;html=1;" vertex="1" parent="1">
          <mxGeometry x="309" y="800" width="150" height="50" as="geometry" />
        </mxCell>
        <mxCell id="Adh_r_rt0b7_pmHKlbrO-38" style="rounded=0;orthogonalLoop=1;jettySize=auto;html=1;entryX=0.5;entryY=0;entryDx=0;entryDy=0;endArrow=none;startFill=0;" edge="1" parent="1" source="Adh_r_rt0b7_pmHKlbrO-35" target="Adh_r_rt0b7_pmHKlbrO-33">
          <mxGeometry relative="1" as="geometry" />
        </mxCell>
        <mxCell id="Adh_r_rt0b7_pmHKlbrO-35" value="d" style="ellipse;whiteSpace=wrap;html=1;aspect=fixed;" vertex="1" parent="1">
          <mxGeometry x="510" y="730" width="20" height="20" as="geometry" />
        </mxCell>
        <mxCell id="Adh_r_rt0b7_pmHKlbrO-37" style="rounded=0;orthogonalLoop=1;jettySize=auto;html=1;entryX=0.494;entryY=-0.048;entryDx=0;entryDy=0;entryPerimeter=0;endArrow=none;startFill=0;" edge="1" parent="1" source="Adh_r_rt0b7_pmHKlbrO-35" target="Adh_r_rt0b7_pmHKlbrO-34">
          <mxGeometry relative="1" as="geometry" />
        </mxCell>
        <mxCell id="Adh_r_rt0b7_pmHKlbrO-39" value="&lt;u&gt;StudentID&lt;/u&gt;" style="ellipse;whiteSpace=wrap;html=1;" vertex="1" parent="1">
          <mxGeometry x="340" y="655" width="80" height="40" as="geometry" />
        </mxCell>
        <mxCell id="Adh_r_rt0b7_pmHKlbrO-47" style="rounded=0;orthogonalLoop=1;jettySize=auto;html=1;entryX=0.5;entryY=1;entryDx=0;entryDy=0;endArrow=none;startFill=0;" edge="1" parent="1" source="Adh_r_rt0b7_pmHKlbrO-40" target="Adh_r_rt0b7_pmHKlbrO-41">
          <mxGeometry relative="1" as="geometry" />
        </mxCell>
        <mxCell id="Adh_r_rt0b7_pmHKlbrO-48" style="rounded=0;orthogonalLoop=1;jettySize=auto;html=1;entryX=0;entryY=1;entryDx=0;entryDy=0;endArrow=none;startFill=0;" edge="1" parent="1" source="Adh_r_rt0b7_pmHKlbrO-40" target="Adh_r_rt0b7_pmHKlbrO-42">
          <mxGeometry relative="1" as="geometry" />
        </mxCell>
        <mxCell id="Adh_r_rt0b7_pmHKlbrO-49" style="rounded=0;orthogonalLoop=1;jettySize=auto;html=1;entryX=0;entryY=0.5;entryDx=0;entryDy=0;endArrow=none;startFill=0;" edge="1" parent="1" source="Adh_r_rt0b7_pmHKlbrO-40" target="Adh_r_rt0b7_pmHKlbrO-43">
          <mxGeometry relative="1" as="geometry" />
        </mxCell>
        <mxCell id="Adh_r_rt0b7_pmHKlbrO-40" value="Name" style="ellipse;whiteSpace=wrap;html=1;" vertex="1" parent="1">
          <mxGeometry x="600" y="620" width="70" height="40" as="geometry" />
        </mxCell>
        <mxCell id="Adh_r_rt0b7_pmHKlbrO-41" value="FirstName" style="ellipse;whiteSpace=wrap;html=1;" vertex="1" parent="1">
          <mxGeometry x="590" y="545" width="70" height="40" as="geometry" />
        </mxCell>
        <mxCell id="Adh_r_rt0b7_pmHKlbrO-42" value="MiddleInitial" style="ellipse;whiteSpace=wrap;html=1;" vertex="1" parent="1">
          <mxGeometry x="670" y="570" width="80" height="40" as="geometry" />
        </mxCell>
        <mxCell id="Adh_r_rt0b7_pmHKlbrO-43" value="lastName" style="ellipse;whiteSpace=wrap;html=1;" vertex="1" parent="1">
          <mxGeometry x="690" y="620" width="70" height="40" as="geometry" />
        </mxCell>
        <mxCell id="Adh_r_rt0b7_pmHKlbrO-44" value="Age" style="ellipse;whiteSpace=wrap;html=1;dashed=1;dashPattern=8 8;" vertex="1" parent="1">
          <mxGeometry x="630" y="680" width="70" height="40" as="geometry" />
        </mxCell>
        <mxCell id="Adh_r_rt0b7_pmHKlbrO-45" value="D.O.B" style="ellipse;whiteSpace=wrap;html=1;" vertex="1" parent="1">
          <mxGeometry x="625" y="738" width="70" height="40" as="geometry" />
        </mxCell>
        <mxCell id="Adh_r_rt0b7_pmHKlbrO-53" value="" style="shape=requiredInterface;html=1;verticalLabelPosition=bottom;sketch=0;rotation=30;" vertex="1" parent="1">
          <mxGeometry x="562" y="758" width="10" height="20" as="geometry" />
        </mxCell>
        <mxCell id="Adh_r_rt0b7_pmHKlbrO-84" style="rounded=0;orthogonalLoop=1;jettySize=auto;html=1;endArrow=none;startFill=0;shape=link;" edge="1" parent="1" source="Adh_r_rt0b7_pmHKlbrO-54" target="Adh_r_rt0b7_pmHKlbrO-60">
          <mxGeometry relative="1" as="geometry" />
        </mxCell>
        <mxCell id="Adh_r_rt0b7_pmHKlbrO-54" value="LECTURES" style="shape=rhombus;perimeter=rhombusPerimeter;whiteSpace=wrap;html=1;align=center;" vertex="1" parent="1">
          <mxGeometry x="340" y="370" width="120" height="60" as="geometry" />
        </mxCell>
        <mxCell id="Adh_r_rt0b7_pmHKlbrO-58" style="edgeStyle=orthogonalEdgeStyle;rounded=0;orthogonalLoop=1;jettySize=auto;html=1;entryX=0;entryY=0.5;entryDx=0;entryDy=0;shape=link;" edge="1" parent="1" source="Adh_r_rt0b7_pmHKlbrO-55" target="Adh_r_rt0b7_pmHKlbrO-56">
          <mxGeometry relative="1" as="geometry" />
        </mxCell>
        <mxCell id="Adh_r_rt0b7_pmHKlbrO-59" style="rounded=0;orthogonalLoop=1;jettySize=auto;html=1;entryX=0.5;entryY=0;entryDx=0;entryDy=0;endArrow=none;startFill=0;" edge="1" parent="1" source="Adh_r_rt0b7_pmHKlbrO-55" target="Adh_r_rt0b7_pmHKlbrO-32">
          <mxGeometry relative="1" as="geometry" />
        </mxCell>
        <mxCell id="Adh_r_rt0b7_pmHKlbrO-55" value="PARTICIPATES" style="shape=rhombus;double=1;perimeter=rhombusPerimeter;whiteSpace=wrap;html=1;align=center;" vertex="1" parent="1">
          <mxGeometry x="442" y="465" width="120" height="80" as="geometry" />
        </mxCell>
        <mxCell id="Adh_r_rt0b7_pmHKlbrO-56" value="ENROLMENT" style="shape=ext;margin=3;double=1;whiteSpace=wrap;html=1;align=center;" vertex="1" parent="1">
          <mxGeometry x="665" y="480" width="120" height="50" as="geometry" />
        </mxCell>
        <mxCell id="Adh_r_rt0b7_pmHKlbrO-62" style="rounded=0;orthogonalLoop=1;jettySize=auto;html=1;endArrow=none;startFill=0;" edge="1" parent="1" source="Adh_r_rt0b7_pmHKlbrO-60" target="Adh_r_rt0b7_pmHKlbrO-55">
          <mxGeometry relative="1" as="geometry" />
        </mxCell>
        <mxCell id="Adh_r_rt0b7_pmHKlbrO-69" style="rounded=0;orthogonalLoop=1;jettySize=auto;html=1;entryX=0;entryY=0.5;entryDx=0;entryDy=0;endArrow=none;startFill=0;" edge="1" parent="1" source="Adh_r_rt0b7_pmHKlbrO-60" target="Adh_r_rt0b7_pmHKlbrO-61">
          <mxGeometry relative="1" as="geometry" />
        </mxCell>
        <mxCell id="Adh_r_rt0b7_pmHKlbrO-60" value="COURSE" style="rounded=0;whiteSpace=wrap;html=1;" vertex="1" parent="1">
          <mxGeometry x="480" y="320" width="100" height="50" as="geometry" />
        </mxCell>
        <mxCell id="Adh_r_rt0b7_pmHKlbrO-66" style="rounded=0;orthogonalLoop=1;jettySize=auto;html=1;entryX=0;entryY=0.5;entryDx=0;entryDy=0;endArrow=none;startFill=0;" edge="1" parent="1" source="Adh_r_rt0b7_pmHKlbrO-61" target="Adh_r_rt0b7_pmHKlbrO-63">
          <mxGeometry relative="1" as="geometry" />
        </mxCell>
        <mxCell id="Adh_r_rt0b7_pmHKlbrO-67" style="rounded=0;orthogonalLoop=1;jettySize=auto;html=1;entryX=0;entryY=0.5;entryDx=0;entryDy=0;endArrow=none;startFill=0;" edge="1" parent="1" source="Adh_r_rt0b7_pmHKlbrO-61" target="Adh_r_rt0b7_pmHKlbrO-64">
          <mxGeometry relative="1" as="geometry" />
        </mxCell>
        <mxCell id="Adh_r_rt0b7_pmHKlbrO-68" style="rounded=0;orthogonalLoop=1;jettySize=auto;html=1;entryX=0;entryY=0.5;entryDx=0;entryDy=0;endArrow=none;startFill=0;" edge="1" parent="1" source="Adh_r_rt0b7_pmHKlbrO-61" target="Adh_r_rt0b7_pmHKlbrO-65">
          <mxGeometry relative="1" as="geometry" />
        </mxCell>
        <mxCell id="Adh_r_rt0b7_pmHKlbrO-61" value="&lt;u&gt;Key&lt;/u&gt;" style="ellipse;whiteSpace=wrap;html=1;" vertex="1" parent="1">
          <mxGeometry x="610" y="275" width="80" height="40" as="geometry" />
        </mxCell>
        <mxCell id="Adh_r_rt0b7_pmHKlbrO-63" value="CourseCode" style="ellipse;whiteSpace=wrap;html=1;" vertex="1" parent="1">
          <mxGeometry x="710" y="225" width="80" height="40" as="geometry" />
        </mxCell>
        <mxCell id="Adh_r_rt0b7_pmHKlbrO-64" value="Semester" style="ellipse;whiteSpace=wrap;html=1;" vertex="1" parent="1">
          <mxGeometry x="730" y="275" width="80" height="40" as="geometry" />
        </mxCell>
        <mxCell id="Adh_r_rt0b7_pmHKlbrO-65" value="Year" style="ellipse;whiteSpace=wrap;html=1;" vertex="1" parent="1">
          <mxGeometry x="725" y="330" width="80" height="40" as="geometry" />
        </mxCell>
        <mxCell id="Adh_r_rt0b7_pmHKlbrO-75" style="rounded=0;orthogonalLoop=1;jettySize=auto;html=1;endArrow=none;startFill=0;" edge="1" parent="1" source="Adh_r_rt0b7_pmHKlbrO-71" target="Adh_r_rt0b7_pmHKlbrO-56">
          <mxGeometry relative="1" as="geometry" />
        </mxCell>
        <mxCell id="Adh_r_rt0b7_pmHKlbrO-71" value="&lt;span style=&quot;border-bottom: 1px dotted&quot;&gt;SessionID&lt;/span&gt;" style="ellipse;whiteSpace=wrap;html=1;align=center;" vertex="1" parent="1">
          <mxGeometry x="650" y="410" width="70" height="40" as="geometry" />
        </mxCell>
        <mxCell id="Adh_r_rt0b7_pmHKlbrO-72" value="TutorialNum" style="ellipse;whiteSpace=wrap;html=1;" vertex="1" parent="1">
          <mxGeometry x="740" y="400" width="80" height="50" as="geometry" />
        </mxCell>
        <mxCell id="Adh_r_rt0b7_pmHKlbrO-76" style="rounded=0;orthogonalLoop=1;jettySize=auto;html=1;entryX=1;entryY=0.5;entryDx=0;entryDy=0;endArrow=none;startFill=0;" edge="1" parent="1" source="Adh_r_rt0b7_pmHKlbrO-73" target="Adh_r_rt0b7_pmHKlbrO-56">
          <mxGeometry relative="1" as="geometry" />
        </mxCell>
        <mxCell id="Adh_r_rt0b7_pmHKlbrO-73" value="practicalNum" style="ellipse;whiteSpace=wrap;html=1;" vertex="1" parent="1">
          <mxGeometry x="805" y="480" width="80" height="50" as="geometry" />
        </mxCell>
        <mxCell id="Adh_r_rt0b7_pmHKlbrO-74" style="rounded=0;orthogonalLoop=1;jettySize=auto;html=1;entryX=0.546;entryY=0.046;entryDx=0;entryDy=0;entryPerimeter=0;endArrow=none;startFill=0;" edge="1" parent="1" source="Adh_r_rt0b7_pmHKlbrO-72" target="Adh_r_rt0b7_pmHKlbrO-56">
          <mxGeometry relative="1" as="geometry" />
        </mxCell>
        <mxCell id="Adh_r_rt0b7_pmHKlbrO-83" style="rounded=0;orthogonalLoop=1;jettySize=auto;html=1;endArrow=none;startFill=0;" edge="1" parent="1" source="Adh_r_rt0b7_pmHKlbrO-77" target="Adh_r_rt0b7_pmHKlbrO-54">
          <mxGeometry relative="1" as="geometry" />
        </mxCell>
        <mxCell id="Adh_r_rt0b7_pmHKlbrO-77" value="LECTURER" style="rounded=0;whiteSpace=wrap;html=1;" vertex="1" parent="1">
          <mxGeometry x="220" y="410" width="100" height="50" as="geometry" />
        </mxCell>
        <mxCell id="Adh_r_rt0b7_pmHKlbrO-78" value="FirstName" style="ellipse;whiteSpace=wrap;html=1;" vertex="1" parent="1">
          <mxGeometry x="250" y="320" width="80" height="40" as="geometry" />
        </mxCell>
        <mxCell id="Adh_r_rt0b7_pmHKlbrO-87" style="rounded=0;orthogonalLoop=1;jettySize=auto;html=1;endArrow=none;startFill=0;entryX=0.5;entryY=1;entryDx=0;entryDy=0;" edge="1" parent="1" source="Adh_r_rt0b7_pmHKlbrO-79" target="Adh_r_rt0b7_pmHKlbrO-77">
          <mxGeometry relative="1" as="geometry">
            <mxPoint x="210" y="420" as="targetPoint" />
          </mxGeometry>
        </mxCell>
        <mxCell id="Adh_r_rt0b7_pmHKlbrO-79" value="&lt;u&gt;StaffID&lt;/u&gt;" style="ellipse;whiteSpace=wrap;html=1;" vertex="1" parent="1">
          <mxGeometry x="170" y="525" width="90" height="45" as="geometry" />
        </mxCell>
        <mxCell id="Adh_r_rt0b7_pmHKlbrO-86" style="rounded=0;orthogonalLoop=1;jettySize=auto;html=1;endArrow=none;startFill=0;" edge="1" parent="1" source="Adh_r_rt0b7_pmHKlbrO-80">
          <mxGeometry relative="1" as="geometry">
            <mxPoint x="270" y="410" as="targetPoint" />
          </mxGeometry>
        </mxCell>
        <mxCell id="Adh_r_rt0b7_pmHKlbrO-88" style="rounded=0;orthogonalLoop=1;jettySize=auto;html=1;endArrow=none;startFill=0;" edge="1" parent="1" source="Adh_r_rt0b7_pmHKlbrO-82" target="Adh_r_rt0b7_pmHKlbrO-77">
          <mxGeometry relative="1" as="geometry" />
        </mxCell>
        <mxCell id="Adh_r_rt0b7_pmHKlbrO-89" value="" style="rounded=0;orthogonalLoop=1;jettySize=auto;html=1;entryX=0.5;entryY=0;entryDx=0;entryDy=0;endArrow=none;startFill=0;" edge="1" parent="1" source="Adh_r_rt0b7_pmHKlbrO-78" target="Adh_r_rt0b7_pmHKlbrO-77">
          <mxGeometry relative="1" as="geometry">
            <mxPoint x="150" y="230" as="sourcePoint" />
            <mxPoint x="210" y="420" as="targetPoint" />
          </mxGeometry>
        </mxCell>
        <mxCell id="Adh_r_rt0b7_pmHKlbrO-80" value="lastName" style="ellipse;whiteSpace=wrap;html=1;" vertex="1" parent="1">
          <mxGeometry x="160" y="340" width="80" height="40" as="geometry" />
        </mxCell>
        <mxCell id="Adh_r_rt0b7_pmHKlbrO-90" value="" style="shape=requiredInterface;html=1;verticalLabelPosition=bottom;sketch=0;rotation=150;" vertex="1" parent="1">
          <mxGeometry x="449" y="758" width="10" height="20" as="geometry" />
        </mxCell>
        <mxCell id="Adh_r_rt0b7_pmHKlbrO-95" style="rounded=0;orthogonalLoop=1;jettySize=auto;html=1;entryX=0.5;entryY=1;entryDx=0;entryDy=0;endArrow=none;startFill=0;" edge="1" parent="1" source="Adh_r_rt0b7_pmHKlbrO-93" target="Adh_r_rt0b7_pmHKlbrO-33">
          <mxGeometry relative="1" as="geometry" />
        </mxCell>
        <mxCell id="Adh_r_rt0b7_pmHKlbrO-93" value="PreviousQualification" style="ellipse;whiteSpace=wrap;html=1;" vertex="1" parent="1">
          <mxGeometry x="497" y="880" width="140" height="40" as="geometry" />
        </mxCell>
        <mxCell id="Adh_r_rt0b7_pmHKlbrO-96" style="rounded=0;orthogonalLoop=1;jettySize=auto;html=1;entryX=0.5;entryY=1;entryDx=0;entryDy=0;endArrow=none;startFill=0;" edge="1" parent="1" source="Adh_r_rt0b7_pmHKlbrO-94" target="Adh_r_rt0b7_pmHKlbrO-33">
          <mxGeometry relative="1" as="geometry" />
        </mxCell>
        <mxCell id="Adh_r_rt0b7_pmHKlbrO-94" value="Institution" style="ellipse;whiteSpace=wrap;html=1;" vertex="1" parent="1">
          <mxGeometry x="650" y="880" width="90" height="40" as="geometry" />
        </mxCell>
        <mxCell id="Adh_r_rt0b7_pmHKlbrO-97" value="N" style="text;html=1;align=center;verticalAlign=middle;whiteSpace=wrap;rounded=0;" vertex="1" parent="1">
          <mxGeometry x="490" y="540" width="60" height="30" as="geometry" />
        </mxCell>
        <mxCell id="Adh_r_rt0b7_pmHKlbrO-98" value="M" style="text;html=1;align=center;verticalAlign=middle;whiteSpace=wrap;rounded=0;" vertex="1" parent="1">
          <mxGeometry x="495" y="440" width="60" height="30" as="geometry" />
        </mxCell>
        <mxCell id="Adh_r_rt0b7_pmHKlbrO-99" value="1" style="text;html=1;align=center;verticalAlign=middle;whiteSpace=wrap;rounded=0;" vertex="1" parent="1">
          <mxGeometry x="550" y="470" width="60" height="30" as="geometry" />
        </mxCell>
        <mxCell id="Adh_r_rt0b7_pmHKlbrO-100" value="1" style="text;html=1;align=center;verticalAlign=middle;whiteSpace=wrap;rounded=0;" vertex="1" parent="1">
          <mxGeometry x="330" y="410" width="60" height="30" as="geometry" />
        </mxCell>
        <mxCell id="Adh_r_rt0b7_pmHKlbrO-101" value="N" style="text;html=1;align=center;verticalAlign=middle;whiteSpace=wrap;rounded=0;" vertex="1" parent="1">
          <mxGeometry x="399" y="360" width="60" height="30" as="geometry" />
        </mxCell>
        <mxCell id="Adh_r_rt0b7_pmHKlbrO-103" style="rounded=0;orthogonalLoop=1;jettySize=auto;html=1;entryX=0;entryY=0;entryDx=0;entryDy=0;exitX=0.5;exitY=0;exitDx=0;exitDy=0;endArrow=none;startFill=0;" edge="1" parent="1" source="Adh_r_rt0b7_pmHKlbrO-102" target="Adh_r_rt0b7_pmHKlbrO-77">
          <mxGeometry relative="1" as="geometry" />
        </mxCell>
        <mxCell id="Adh_r_rt0b7_pmHKlbrO-102" value="SUPERVISES" style="rhombus;whiteSpace=wrap;html=1;" vertex="1" parent="1">
          <mxGeometry x="20" y="382.5" width="110" height="105" as="geometry" />
        </mxCell>
        <mxCell id="Adh_r_rt0b7_pmHKlbrO-105" value="Supervisor" style="text;html=1;align=center;verticalAlign=middle;whiteSpace=wrap;rounded=0;rotation=10;" vertex="1" parent="1">
          <mxGeometry x="110" y="370" width="60" height="30" as="geometry" />
        </mxCell>
        <mxCell id="Adh_r_rt0b7_pmHKlbrO-106" value="" style="rounded=0;orthogonalLoop=1;jettySize=auto;html=1;exitX=0.5;exitY=1;exitDx=0;exitDy=0;endArrow=none;startFill=0;" edge="1" parent="1" source="Adh_r_rt0b7_pmHKlbrO-102">
          <mxGeometry relative="1" as="geometry">
            <mxPoint x="350" y="630" as="sourcePoint" />
            <mxPoint x="220" y="460" as="targetPoint" />
          </mxGeometry>
        </mxCell>
        <mxCell id="Adh_r_rt0b7_pmHKlbrO-82" value="Publications" style="ellipse;shape=doubleEllipse;margin=3;whiteSpace=wrap;html=1;align=center;" vertex="1" parent="1">
          <mxGeometry x="270" y="545" width="100" height="40" as="geometry" />
        </mxCell>
        <mxCell id="Adh_r_rt0b7_pmHKlbrO-108" value="Supervisee" style="text;html=1;align=center;verticalAlign=middle;whiteSpace=wrap;rounded=0;rotation=-10;" vertex="1" parent="1">
          <mxGeometry x="120" y="450" width="60" height="30" as="geometry" />
        </mxCell>
      </root>
    </mxGraphModel>
  </diagram>
  <diagram id="nkOJYkZZ3NaIpr3j_VaI" name="Page-2">
    <mxGraphModel grid="1" page="1" gridSize="10" guides="1" tooltips="1" connect="1" arrows="1" fold="1" pageScale="1" pageWidth="827" pageHeight="1169" math="0" shadow="0">
      <root>
        <mxCell id="0" />
        <mxCell id="1" parent="0" />
      </root>
    </mxGraphModel>
  </diagram>
</mxfile>
